<svg width="400" height="300" viewBox="0 0 400 300" fill="none" xmlns="http://www.w3.org/2000/svg">
  <!-- Document -->
  <rect x="100" y="50" width="200" height="250" rx="8" fill="white" stroke="#E2E8F0" stroke-width="2"/>
  
  <!-- Document lines -->
  <line x1="130" y1="90" x2="270" y2="90" stroke="#E2E8F0" stroke-width="4" stroke-linecap="round"/>
  <line x1="130" y1="120" x2="270" y2="120" stroke="#E2E8F0" stroke-width="4" stroke-linecap="round"/>
  <line x1="130" y1="150" x2="200" y2="150" stroke="#E2E8F0" stroke-width="4" stroke-linecap="round"/>
  
  <!-- Stamp circle -->
  <circle cx="220" cy="200" r="40" fill="#EBF5FF" stroke="#3B82F6" stroke-width="2" stroke-dasharray="4 2"/>
  
  <!-- Stamp contents -->
  <path d="M220 170V230" stroke="#3B82F6" stroke-width="2"/>
  <path d="M190 200H250" stroke="#3B82F6" stroke-width="2"/>
  
  <!-- Blockchain nodes -->
  <circle cx="60" cy="100" r="15" fill="#DBEAFE"/>
  <circle cx="30" cy="150" r="10" fill="#DBEAFE"/>
  <circle cx="70" cy="190" r="12" fill="#DBEAFE"/>
  
  <circle cx="340" cy="80" r="12" fill="#DBEAFE"/>
  <circle cx="370" cy="130" r="15" fill="#DBEAFE"/>
  <circle cx="330" cy="180" r="10" fill="#DBEAFE"/>
  
  <!-- Connecting lines -->
  <line x1="74" y1="92" x2="100" y2="80" stroke="#DBEAFE" stroke-width="2"/>
  <line x1="40" y1="150" x2="100" y2="130" stroke="#DBEAFE" stroke-width="2"/>
  <line x1="82" y1="190" x2="100" y2="180" stroke="#DBEAFE" stroke-width="2"/>
  
  <line x1="328" y1="80" x2="300" y2="90" stroke="#DBEAFE" stroke-width="2"/>
  <line x1="355" y1="130" x2="300" y2="140" stroke="#DBEAFE" stroke-width="2"/>
  <line x1="320" y1="180" x2="300" y2="170" stroke="#DBEAFE" stroke-width="2"/>
  
  <!-- PDF text -->
  <text x="185" y="250" font-family="Arial" font-size="24" font-weight="bold" fill="#3B82F6">PDF</text>
</svg> 